<svg xmlns="http://www.w3.org/2000/svg" xmlns:xlink="http://www.w3.org/1999/xlink" xmlns:lucid="lucid" width="1470.51" height="741.5"><g transform="translate(1499.3394125759621 300.6666666666666)" lucid:page-tab-id="0_0"><path d="M-1500-500H0V500h-1500z" fill="#fff"/><path d="M-309.33 225.33a5 5 0 0 1 5-5h270a5 5 0 0 1 5 5v210a5 5 0 0 1-5 5h-270a5 5 0 0 1-5-5z" fill="#fff"/><path d="M-309.33 260.33v-35a5 5 0 0 1 5-5h270a5 5 0 0 1 5 5v35" fill="#ccc"/><path d="M-309.33 260.33v31h280v-31" fill="#fff"/><path d="M-309.33 290.33v31h280v-31" fill="#fff"/><path d="M-309.33 320.33v31h280v-31" fill="#fff"/><path d="M-309.33 350.33v31h280v-31" fill="#fff"/><path d="M-309.33 380.33v31h280v-31" fill="#fff"/><path d="M-309.33 410.33v25a5 5 0 0 0 5 5h270a5 5 0 0 0 5-5v-25" fill="#fff"/><path d="M-309.33 260.33h280M-309.33 225.33a5 5 0 0 1 5-5h270a5 5 0 0 1 5 5v210a5 5 0 0 1-5 5h-270a5 5 0 0 1-5-5zM-169.33 260.33v180" stroke="#333" fill="none"/><use xlink:href="#a" transform="matrix(1,0,0,1,-299.33333333333326,220.33333333333343) translate(0 26.089501953125)"/><use xlink:href="#b" transform="matrix(1,0,0,1,-304.33333333333326,262.8333333333334) translate(0 18.589501953125)"/><use xlink:href="#c" transform="matrix(1,0,0,1,-164.33333333333326,262.8333333333334) translate(0 18.589501953125)"/><use xlink:href="#d" transform="matrix(1,0,0,1,-304.33333333333326,292.8333333333334) translate(0 18.589501953125)"/><use xlink:href="#e" transform="matrix(1,0,0,1,-164.33333333333326,292.8333333333334) translate(0 18.589501953125)"/><use xlink:href="#f" transform="matrix(1,0,0,1,-304.33333333333326,322.8333333333334) translate(0 18.589501953125)"/><use xlink:href="#e" transform="matrix(1,0,0,1,-164.33333333333326,322.8333333333334) translate(0 18.589501953125)"/><use xlink:href="#g" transform="matrix(1,0,0,1,-304.33333333333326,352.8333333333334) translate(0 18.589501953125)"/><use xlink:href="#h" transform="matrix(1,0,0,1,-164.33333333333326,352.8333333333334) translate(0 18.589501953125)"/><use xlink:href="#i" transform="matrix(1,0,0,1,-304.33333333333326,382.8333333333334) translate(0 18.589501953125)"/><use xlink:href="#j" transform="matrix(1,0,0,1,-164.33333333333326,382.8333333333334) translate(0 18.589501953125)"/><use xlink:href="#k" transform="matrix(1,0,0,1,-304.33333333333326,412.8333333333334) translate(0 18.589501953125)"/><use xlink:href="#l" transform="matrix(1,0,0,1,-164.33333333333326,412.8333333333334) translate(0 18.589501953125)"/><path d="M-887.42-250.17a5 5 0 0 1 5-5h270a5 5 0 0 1 5 5v180a5 5 0 0 1-5 5h-270a5 5 0 0 1-5-5z" fill="#fff"/><path d="M-887.42-215.17v-35a5 5 0 0 1 5-5h270a5 5 0 0 1 5 5v35" fill="#ccc"/><path d="M-887.42-215.17v31h280v-31" fill="#fff"/><path d="M-887.42-185.17v31h280v-31" fill="#fff"/><path d="M-887.42-155.17v31h280v-31" fill="#fff"/><path d="M-887.42-125.17v31h280v-31" fill="#fff"/><path d="M-887.42-95.17v25a5 5 0 0 0 5 5h270a5 5 0 0 0 5-5v-25" fill="#fff"/><path d="M-887.42-215.17h280M-887.42-250.17a5 5 0 0 1 5-5h270a5 5 0 0 1 5 5v180a5 5 0 0 1-5 5h-270a5 5 0 0 1-5-5zM-747.42-215.17v150" stroke="#333" fill="none"/><use xlink:href="#m" transform="matrix(1,0,0,1,-877.4197062879811,-255.16666666666666) translate(0 26.089501953125)"/><use xlink:href="#b" transform="matrix(1,0,0,1,-882.4197062879811,-212.66666666666666) translate(0 18.589501953125)"/><use xlink:href="#c" transform="matrix(1,0,0,1,-742.4197062879811,-212.66666666666666) translate(0 18.589501953125)"/><use xlink:href="#d" transform="matrix(1,0,0,1,-882.4197062879811,-182.66666666666666) translate(0 18.589501953125)"/><use xlink:href="#e" transform="matrix(1,0,0,1,-742.4197062879811,-182.66666666666666) translate(0 18.589501953125)"/><use xlink:href="#n" transform="matrix(1,0,0,1,-882.4197062879811,-152.66666666666666) translate(0 18.589501953125)"/><use xlink:href="#o" transform="matrix(1,0,0,1,-742.4197062879811,-152.66666666666666) translate(0 18.589501953125)"/><use xlink:href="#p" transform="matrix(1,0,0,1,-882.4197062879811,-122.66666666666666) translate(0 18.589501953125)"/><use xlink:href="#o" transform="matrix(1,0,0,1,-742.4197062879811,-122.66666666666666) translate(0 18.589501953125)"/><use xlink:href="#q" transform="matrix(1,0,0,1,-882.4197062879811,-92.66666666666666) translate(0 18.589501953125)"/><use xlink:href="#h" transform="matrix(1,0,0,1,-742.4197062879811,-92.66666666666666) translate(0 18.589501953125)"/><path d="M-1498.84-275.67a5 5 0 0 1 5-5h303.33a5 5 0 0 1 5 5v231a5 5 0 0 1-5 5h-303.34a5 5 0 0 1-5-5z" fill="#fff"/><path d="M-1498.84-240.67v-35a5 5 0 0 1 5-5h303.33a5 5 0 0 1 5 5v35" fill="#ccc"/><path d="M-1498.84-240.67v31h313.33v-31" fill="#fff"/><path d="M-1498.84-210.67v31h313.33v-31" fill="#fff"/><path d="M-1498.84-180.67v31h313.33v-31" fill="#fff"/><path d="M-1498.84-150.67v31h313.33v-31" fill="#fff"/><path d="M-1498.84-120.67v52h313.33v-52" fill="#fff"/><path d="M-1498.84-69.67v25a5 5 0 0 0 5 5h303.33a5 5 0 0 0 5-5v-25" fill="#fff"/><path d="M-1498.84-240.67h313.33M-1498.84-275.67a5 5 0 0 1 5-5h303.33a5 5 0 0 1 5 5v231a5 5 0 0 1-5 5h-303.34a5 5 0 0 1-5-5zM-1342.17-240.67v201" stroke="#333" fill="none"/><use xlink:href="#r" transform="matrix(1,0,0,1,-1488.8394125759621,-280.6666666666666) translate(0 26.089501953125)"/><use xlink:href="#b" transform="matrix(1,0,0,1,-1493.8394125759621,-238.16666666666657) translate(0 18.589501953125)"/><use xlink:href="#c" transform="matrix(1,0,0,1,-1337.1727459092954,-238.16666666666657) translate(0 18.589501953125)"/><use xlink:href="#d" transform="matrix(1,0,0,1,-1493.8394125759621,-208.16666666666657) translate(0 18.589501953125)"/><use xlink:href="#e" transform="matrix(1,0,0,1,-1337.1727459092954,-208.16666666666657) translate(0 18.589501953125)"/><use xlink:href="#s" transform="matrix(1,0,0,1,-1493.8394125759621,-178.16666666666657) translate(0 18.589501953125)"/><use xlink:href="#e" transform="matrix(1,0,0,1,-1337.1727459092954,-178.16666666666657) translate(0 18.589501953125)"/><use xlink:href="#t" transform="matrix(1,0,0,1,-1493.8394125759621,-148.16666666666657) translate(0 18.589501953125)"/><use xlink:href="#h" transform="matrix(1,0,0,1,-1337.1727459092954,-148.16666666666657) translate(0 18.589501953125)"/><use xlink:href="#u" transform="matrix(1,0,0,1,-1493.8394125759621,-118.16666666666657) translate(0 29.089501953125)"/><use xlink:href="#v" transform="matrix(1,0,0,1,-1337.1727459092954,-118.16666666666657) translate(0 18.96212890625)"/><use xlink:href="#w" transform="matrix(1,0,0,1,-1337.1727459092954,-118.16666666666657) translate(0 39.216875)"/><use xlink:href="#x" transform="matrix(1,0,0,1,-1337.1727459092954,-118.16666666666657) translate(84.21495117187499 39.216875)"/><use xlink:href="#y" transform="matrix(1,0,0,1,-1493.8394125759621,-67.16666666666657) translate(0 18.589501953125)"/><use xlink:href="#h" transform="matrix(1,0,0,1,-1337.1727459092954,-67.16666666666657) translate(0 18.589501953125)"/><path d="M-309.33-295.17a5 5 0 0 1 5-5h270a5 5 0 0 1 5 5v270a5 5 0 0 1-5 5h-270a5 5 0 0 1-5-5z" fill="#fff"/><path d="M-309.33-260.17v-35a5 5 0 0 1 5-5h270a5 5 0 0 1 5 5v35" fill="#ccc"/><path d="M-309.33-260.17v31h280v-31" fill="#fff"/><path d="M-309.33-230.17v31h280v-31" fill="#fff"/><path d="M-309.33-200.17v31h280v-31" fill="#fff"/><path d="M-309.33-170.17v31h280v-31" fill="#fff"/><path d="M-309.33-140.17v31h280v-31" fill="#fff"/><path d="M-309.33-110.17v31h280v-31" fill="#fff"/><path d="M-309.33-80.17v31h280v-31" fill="#fff"/><path d="M-309.33-50.17v25a5 5 0 0 0 5 5h270a5 5 0 0 0 5-5v-25" fill="#fff"/><path d="M-309.33-260.17h280M-309.33-295.17a5 5 0 0 1 5-5h270a5 5 0 0 1 5 5v270a5 5 0 0 1-5 5h-270a5 5 0 0 1-5-5zM-169.33-260.17v240" stroke="#333" fill="none"/><use xlink:href="#z" transform="matrix(1,0,0,1,-299.33333333333326,-300.1666666666666) translate(0 26.089501953125)"/><use xlink:href="#b" transform="matrix(1,0,0,1,-304.33333333333326,-257.6666666666666) translate(0 18.589501953125)"/><use xlink:href="#c" transform="matrix(1,0,0,1,-164.33333333333326,-257.6666666666666) translate(0 18.589501953125)"/><use xlink:href="#d" transform="matrix(1,0,0,1,-304.33333333333326,-227.66666666666657) translate(0 18.589501953125)"/><use xlink:href="#e" transform="matrix(1,0,0,1,-164.33333333333326,-227.66666666666657) translate(0 18.589501953125)"/><use xlink:href="#q" transform="matrix(1,0,0,1,-304.33333333333326,-197.66666666666657) translate(0 18.589501953125)"/><use xlink:href="#h" transform="matrix(1,0,0,1,-164.33333333333326,-197.66666666666657) translate(0 18.589501953125)"/><use xlink:href="#A" transform="matrix(1,0,0,1,-304.33333333333326,-167.66666666666657) translate(0 18.589501953125)"/><use xlink:href="#B" transform="matrix(1,0,0,1,-164.33333333333326,-167.66666666666657) translate(0 18.589501953125)"/><use xlink:href="#C" transform="matrix(1,0,0,1,-304.33333333333326,-137.66666666666657) translate(0 18.589501953125)"/><use xlink:href="#h" transform="matrix(1,0,0,1,-164.33333333333326,-137.66666666666657) translate(0 18.589501953125)"/><use xlink:href="#D" transform="matrix(1,0,0,1,-304.33333333333326,-107.66666666666657) translate(0 18.589501953125)"/><use xlink:href="#e" transform="matrix(1,0,0,1,-164.33333333333326,-107.66666666666657) translate(0 18.589501953125)"/><use xlink:href="#E" transform="matrix(1,0,0,1,-304.33333333333326,-77.66666666666657) translate(0 18.589501953125)"/><use xlink:href="#F" transform="matrix(1,0,0,1,-164.33333333333326,-77.66666666666657) translate(0 18.589501953125)"/><use xlink:href="#G" transform="matrix(1,0,0,1,-164.33333333333326,-77.66666666666657) translate(84.15773437500002 18.589501953125)"/><use xlink:href="#H" transform="matrix(1,0,0,1,-304.33333333333326,-47.66666666666657) translate(0 18.589501953125)"/><use xlink:href="#j" transform="matrix(1,0,0,1,-164.33333333333326,-47.66666666666657) translate(0 18.589501953125)"/><path d="M-906.74-200.3H-1165M-888.37-200.3h-20m20-10l-20 10m20 10l-20-10M-1185-200.3h20m-10 10v-20m10 20v-20" stroke="#5e5e5e" stroke-width="2" fill="none"/><use xlink:href="#I" transform="matrix(1,0,0,1,-1050.717013888889,-196.3095158956904) translate(0.0049999999999954525 17.22222222222222)"/><use xlink:href="#J" transform="matrix(1,0,0,1,-1151.3897569444443,-225.81993256235705) translate(0.005000000000002558 17.22222222222222)"/><path d="M-906.74-110H-1165M-888.37-110h-20m20-10l-20 10m20 10l-20-10M-1184.56-110h20m-20 10l20-10m-20-10l20 10m0 10v-20" stroke="#5e5e5e" stroke-width="2" fill="none"/><use xlink:href="#K" transform="matrix(1,0,0,1,-1040.5633680555557,-105.98812305129834) translate(0.005000000000002558 17.22222222222222)"/><use xlink:href="#L" transform="matrix(1,0,0,1,-1150.3680555555557,-135.49853971796495) translate(0.005000000000002558 17.22222222222222)"/><path d="M-328.66-155.15h-258.26M-310.28-155.15h-20m20-10l-20 10m20 10l-20-10M-606.92-155.15h20m-10 10v-20m10 20v-20" stroke="#5e5e5e" stroke-width="2" fill="none"/><use xlink:href="#M" transform="matrix(1,0,0,1,-396.77430555555554,-151.14881137589748) translate(0.004999999999999005 17.22222222222222)"/><use xlink:href="#N" transform="matrix(1,0,0,1,-571.9357638888889,-180.65922804256414) translate(0.0049999999999954525 17.22222222222222)"/><path d="M-168.36 199.83h-1.95v-19.08h1.94zm0-40.6l-1.95.02V35.75h1.94zm0-144.98h-1.95V.32h1.94z" stroke="#5e5e5e" stroke-width=".05" fill="#5e5e5e"/><path d="M-159.33 200.36h-8.43l9.3 18.6-1.75.86-8.16-16.3v15.87h-1.95V203.5l-8.16 16.3-1.75-.87 9.3-18.6h-8.43v-1.94h20zM-168.36-10.64h9.03v1.95h-9.03v8.06h9.03V1.3h-20V-.63h9.02V-8.7h-9.03v-1.94h9.02v-9.03h1.94z" stroke="#5e5e5e" stroke-width=".05" fill="#5e5e5e"/><g><use xlink:href="#O" transform="matrix(1,0,0,1,-230.5572916666666,14.244791666666668) translate(0.005000000000002558 17.22222222222222)"/></g><g><use xlink:href="#P" transform="matrix(1,0,0,1,-212.9010416666666,159.24479166666666) translate(0.005000000000002558 17.22222222222222)"/></g><defs><path fill="#333" d="M87 0l247-1490h510c351 0 476 196 432 460-33 197-146 351-346 417L1163 0H943L728-579c-116 2-237 0-355 1L277 0H87zm314-747h311c238 0 346-110 375-283 31-185-52-293-281-293H496" id="Q"/><path fill="#333" d="M535 24C259 24 94-144 94-427c0-392 272-715 610-715 216 0 356 119 356 305 0 244-237 344-790 350-18 199 49 349 276 352 142 0 260-66 317-173l167 47C947-85 756 24 535 24zM294-623c447-4 586-57 586-218 0-85-78-141-194-141-220 0-342 177-392 359" id="R"/><path fill="#333" d="M451 24C217 22 71-78 61-277l174-29c11 123 90 172 219 172 161 0 280-83 297-181 11-71-30-117-135-143l-179-44c-195-48-280-153-253-316 31-186 223-314 455-314 233 4 337 107 366 275l-165 30c-18-80-65-152-204-152-138 0-256 75-272 174-13 77 32 118 158 149l162 40c195 48 278 154 252 313C904-113 708 24 451 24" id="S"/><path fill="#333" d="M528 24C258 24 94-156 94-433c0-355 229-699 603-699 270 0 436 178 436 458 0 359-234 698-605 698zm4-161c275 0 420-287 420-533 0-170-77-301-260-301-271 0-418 288-418 536 0 168 77 298 258 298" id="T"/><path fill="#333" d="M443 14C219 14 87-123 134-408l117-710h180L317-423c-28 171 49 275 206 275s300-105 332-300l110-670h181L961 0H787l35-209C722-47 590 14 443 14" id="U"/><path fill="#333" d="M66 0l185-1118h174l-28 172h12c78-136 219-209 411-185l-30 181c-211-47-398 67-428 250L246 0H66" id="V"/><path fill="#333" d="M528 24C258 24 94-156 94-433c0-354 228-699 603-699 222 0 381 120 410 314l-176 39c-14-114-95-192-238-192-272 0-419 288-419 536 0 167 76 298 258 298 155 0 277-90 329-211l166 58C935-93 745 24 528 24" id="W"/><g id="a"><use transform="matrix(0.008173828125000001,0,0,0.008173828125000001,0,0)" xlink:href="#Q"/><use transform="matrix(0.008173828125000001,0,0,0.008173828125000001,10.527890625000001,0)" xlink:href="#R"/><use transform="matrix(0.008173828125000001,0,0,0.008173828125000001,20.164833984375,0)" xlink:href="#S"/><use transform="matrix(0.008173828125000001,0,0,0.008173828125000001,28.992568359375,0)" xlink:href="#T"/><use transform="matrix(0.008173828125000001,0,0,0.008173828125000001,39.038203125,0)" xlink:href="#U"/><use transform="matrix(0.008173828125000001,0,0,0.008173828125000001,48.944882812500005,0)" xlink:href="#V"/><use transform="matrix(0.008173828125000001,0,0,0.008173828125000001,54.97716796875,0)" xlink:href="#W"/><use transform="matrix(0.008173828125000001,0,0,0.008173828125000001,64.548720703125,0)" xlink:href="#R"/><use transform="matrix(0.008173828125000001,0,0,0.008173828125000001,74.1856640625,0)" xlink:href="#S"/></g><path fill="#333" d="M66 0l185-1118h180L246 0H66zm307-1301c-71 0-117-55-106-119s74-119 145-119c65 0 117 50 106 118s-78 120-145 120" id="X"/><path fill="#333" d="M492 24C248 24 94-147 94-425c0-352 212-707 569-707 222 0 274 136 303 198h12l92-556h181L1004 0H829l30-173h-19C792-103 700 24 492 24zm32-161c268 0 407-295 407-549 0-175-80-285-247-285-266 0-408 283-408 536 0 174 79 298 248 298" id="Y"/><g id="b"><use transform="matrix(0.008173828125000001,0,0,0.008173828125000001,0,0)" xlink:href="#X"/><use transform="matrix(0.008173828125000001,0,0,0.008173828125000001,4.062392578125,0)" xlink:href="#Y"/></g><path fill="#333" d="M677 24c-359 0-556-231-505-538l162-976h190L363-516c-36 218 86 364 321 364 246 0 428-159 464-377l159-961h190l-163 989c-51 309-312 525-657 525" id="Z"/><path fill="#333" d="M524-1490L277 0H87l247-1490h190" id="aa"/><path fill="#333" d="M585 0H87l247-1490h460c436 0 670 281 593 744C1309-277 1035 0 585 0zM305-168h262c366 0 577-221 636-580s-82-574-426-574H496" id="ab"/><g id="c"><use transform="matrix(0.008173828125000001,0,0,0.008173828125000001,0,0)" xlink:href="#Z"/><use transform="matrix(0.008173828125000001,0,0,0.008173828125000001,12.448740234375002,0)" xlink:href="#Z"/><use transform="matrix(0.008173828125000001,0,0,0.008173828125000001,24.897480468750004,0)" xlink:href="#aa"/><use transform="matrix(0.008173828125000001,0,0,0.008173828125000001,29.393085937500004,0)" xlink:href="#ab"/></g><path fill="#333" d="M356-664L245 0H65l186-1118h173l-32 197c96-152 219-211 366-211 232 0 366 145 319 428L960 0H779l117-701c29-174-48-269-198-269-165 0-310 115-342 306" id="ac"/><path fill="#333" d="M481 24C202 24 45-202 104-557s293-575 571-575c216 0 263 132 291 193h15l29-179h181L1006 0H831l28-173h-21C788-107 693 24 481 24zm56-161c204 0 342-174 383-422s-41-412-245-412c-215 0-350 183-388 412-39 235 39 422 250 422" id="ad"/><path fill="#333" d="M65 0l186-1118h175l-31 195c80-148 212-215 337-215 153 0 236 96 255 228 75-143 223-228 382-228 199 0 341 131 298 390L1543 0h-181l126-756c27-162-65-218-177-218-160 0-274 111-297 250L894 0H714l128-773c21-127-57-201-174-201-136 0-277 97-307 277L245 0H65" id="ae"/><g id="d"><use transform="matrix(0.008173828125000001,0,0,0.008173828125000001,0,0)" xlink:href="#ac"/><use transform="matrix(0.008173828125000001,0,0,0.008173828125000001,9.898505859375001,0)" xlink:href="#ad"/><use transform="matrix(0.008173828125000001,0,0,0.008173828125000001,20.173007812500003,0)" xlink:href="#ae"/><use transform="matrix(0.008173828125000001,0,0,0.008173828125000001,34.83685546875,0)" xlink:href="#R"/></g><path fill="#333" d="M507 0L206-1490h200c85 478 172 817 237 1337 237-524 428-852 670-1337h202L726 0H507" id="af"/><path fill="#333" d="M-41 0l788-1490h220L1268 0h-192l-80-416H383L169 0H-41zm509-582h497c-56-293-77-375-126-756-162 359-224 468-371 756" id="ag"/><path fill="#333" d="M698 20c-339 0-559-226-559-600 0-470 305-930 790-930 306 0 529 181 531 489h-190c-8-202-157-313-348-313-373 0-599 380-599 749 0 281 158 429 382 429 202 0 399-111 474-313h191C1267-166 997 20 698 20" id="ah"/><path fill="#333" d="M87 0l247-1490h190L417-846h782l107-644h190L1249 0h-190l113-678H389L277 0H87" id="ai"/><path fill="#333" d="M226-608c54-324 228-726 419-973h175c-209 318-363 684-411 972-44 264-11 530 103 888H337C213-15 178-320 226-608" id="aj"/><path fill="#333" d="M808-1490L561 0H375l218-1314h-10l-405 267 34-204 364-239h232" id="ak"/><path fill="#333" d="M550 20C217 20 72-259 152-744s322-766 651-766c328 0 477 279 398 763-80 490-319 767-651 767zm27-166c220 0 379-223 441-601 61-372-21-598-242-598-214 0-377 214-441 602-62 376 24 597 242 597" id="al"/><path fill="#333" d="M-43 280C186-71 310-340 354-607c48-291 15-654-89-973h176c108 246 149 649 95 974-48 289-184 595-403 886H-43" id="am"/><g id="e"><use transform="matrix(0.008173828125000001,0,0,0.008173828125000001,0,0)" xlink:href="#af"/><use transform="matrix(0.008173828125000001,0,0,0.008173828125000001,10.405283203125002,0)" xlink:href="#ag"/><use transform="matrix(0.008173828125000001,0,0,0.008173828125000001,21.954902343750003,0)" xlink:href="#Q"/><use transform="matrix(0.008173828125000001,0,0,0.008173828125000001,32.7280078125,0)" xlink:href="#ah"/><use transform="matrix(0.008173828125000001,0,0,0.008173828125000001,44.947880859375005,0)" xlink:href="#ai"/><use transform="matrix(0.008173828125000001,0,0,0.008173828125000001,57.388447265625004,0)" xlink:href="#ag"/><use transform="matrix(0.008173828125000001,0,0,0.008173828125000001,68.93806640625,0)" xlink:href="#Q"/><use transform="matrix(0.008173828125000001,0,0,0.008173828125000001,79.711171875,0)" xlink:href="#aj"/><use transform="matrix(0.008173828125000001,0,0,0.008173828125000001,85.817021484375,0)" xlink:href="#ak"/><use transform="matrix(0.008173828125000001,0,0,0.008173828125000001,92.633994140625,0)" xlink:href="#al"/><use transform="matrix(0.008173828125000001,0,0,0.008173828125000001,103.18640624999999,0)" xlink:href="#al"/><use transform="matrix(0.008173828125000001,0,0,0.008173828125000001,113.738818359375,0)" xlink:href="#am"/></g><path fill="#333" d="M780-1118l-24 146H497L317 116C281 334 148 448-56 448c-43 0-82-5-117-17l45-161c143 34 239 0 264-153L316-972H89l24-146h227l13-77c43-287 254-417 541-345l-50 154c-23-5-81-8-121-8-107 0-167 63-189 196l-13 80h259" id="an"/><path fill="#333" d="M492-1490L245 0H65l247-1490h180" id="ao"/><path fill="#333" d="M691-1118l-25 154H437L325-290c-17 103 16 144 108 144 23 0 63-6 94-12L538-6c-36 12-87 20-136 20-196 0-290-109-260-290l114-688H88l25-154h169l44-266h180l-44 266h229" id="ap"/><path fill="#333" d="M-19 405l72-156c121 32 203 15 288-150l47-93-241-1124h188c55 313 135 616 167 950 142-329 324-636 483-950h205L486 167c-97 177-219 259-378 259-59 0-109-11-127-21" id="aq"/><path fill="#333" d="M-4 418l255-1536h174l-30 179h9c47-68 143-193 355-193 246 0 401 170 401 447 0 348-211 709-568 709-219 0-274-140-300-202h-17l-99 596H-4zm572-555c267 0 411-296 411-543 0-170-78-291-250-291-269 0-405 284-405 542 0 177 81 292 244 292" id="ar"/><g id="f"><use transform="matrix(0.008173828125000001,0,0,0.008173828125000001,0,0)" xlink:href="#an"/><use transform="matrix(0.008173828125000001,0,0,0.008173828125000001,6.244804687500001,0)" xlink:href="#X"/><use transform="matrix(0.008173828125000001,0,0,0.008173828125000001,10.307197265625001,0)" xlink:href="#ao"/><use transform="matrix(0.008173828125000001,0,0,0.008173828125000001,14.361416015625002,0)" xlink:href="#R"/><use transform="matrix(0.008173828125000001,0,0,0.008173828125000001,23.998359375000003,0)" xlink:href="#ap"/><use transform="matrix(0.008173828125000001,0,0,0.008173828125000001,29.818125000000002,0)" xlink:href="#aq"/><use transform="matrix(0.008173828125000001,0,0,0.008173828125000001,39.226201171875005,0)" xlink:href="#ar"/><use transform="matrix(0.008173828125000001,0,0,0.008173828125000001,49.48435546875,0)" xlink:href="#R"/></g><path fill="#333" d="M356-670L245 0H65l247-1490h180l-94 565c97-150 219-207 362-207 226 0 365 139 318 422L960 0H779l116-695c29-174-53-275-208-275-158 0-299 107-331 300" id="as"/><g id="g"><use transform="matrix(0.008173828125000001,0,0,0.008173828125000001,0,0)" xlink:href="#an"/><use transform="matrix(0.008173828125000001,0,0,0.008173828125000001,6.244804687500001,0)" xlink:href="#X"/><use transform="matrix(0.008173828125000001,0,0,0.008173828125000001,10.307197265625001,0)" xlink:href="#ao"/><use transform="matrix(0.008173828125000001,0,0,0.008173828125000001,14.361416015625002,0)" xlink:href="#R"/><use transform="matrix(0.008173828125000001,0,0,0.008173828125000001,23.998359375000003,0)" xlink:href="#ar"/><use transform="matrix(0.008173828125000001,0,0,0.008173828125000001,34.256513671875005,0)" xlink:href="#ad"/><use transform="matrix(0.008173828125000001,0,0,0.008173828125000001,44.531015625000016,0)" xlink:href="#ap"/><use transform="matrix(0.008173828125000001,0,0,0.008173828125000001,50.02382812500001,0)" xlink:href="#as"/></g><path fill="#333" d="M226-1323l28-167h1126l-28 167H885L666 0H476l219-1323H226" id="at"/><path fill="#333" d="M87 0l247-1490h908l-28 167H496l-80 487h669l-28 167H387l-83 502h727L1004 0H87" id="au"/><path fill="#333" d="M-36 0l660-763-380-727h211c91 187 226 412 289 605 129-193 341-416 498-605h224L845-769 1247 0h-211C936-203 796-426 720-640 574-428 357-204 188 0H-36" id="av"/><g id="h"><use transform="matrix(0.008173828125000001,0,0,0.008173828125000001,0,0)" xlink:href="#at"/><use transform="matrix(0.008173828125000001,0,0,0.008173828125000001,10.822148437500001,0)" xlink:href="#au"/><use transform="matrix(0.008173828125000001,0,0,0.008173828125000001,20.8923046875,0)" xlink:href="#av"/><use transform="matrix(0.008173828125000001,0,0,0.008173828125000001,31.6490625,0)" xlink:href="#at"/></g><path fill="#333" d="M33 0l23-134 752-806 2-11H211l27-167h839l-24 143-732 797-2 11h620L912 0H33" id="aw"/><g id="i"><use transform="matrix(0.008173828125000001,0,0,0.008173828125000001,0,0)" xlink:href="#S"/><use transform="matrix(0.008173828125000001,0,0,0.008173828125000001,8.827734375,0)" xlink:href="#X"/><use transform="matrix(0.008173828125000001,0,0,0.008173828125000001,12.890126953125002,0)" xlink:href="#aw"/><use transform="matrix(0.008173828125000001,0,0,0.008173828125000001,21.88951171875,0)" xlink:href="#R"/></g><path fill="#333" d="M87 0l247-1490h218l448 953c25 54 80 176 129 327 11-149 33-280 47-366l151-914h190L1270 0h-219C841-464 670-765 473-1275 414-753 352-475 278 0H87" id="ax"/><g id="j"><use transform="matrix(0.008173828125000001,0,0,0.008173828125000001,0,0)" xlink:href="#aa"/><use transform="matrix(0.008173828125000001,0,0,0.008173828125000001,4.495605468750001,0)" xlink:href="#ax"/><use transform="matrix(0.008173828125000001,0,0,0.008173828125000001,17.107822265625003,0)" xlink:href="#at"/></g><g id="k"><use transform="matrix(0.008173828125000001,0,0,0.008173828125000001,0,0)" xlink:href="#ap"/><use transform="matrix(0.008173828125000001,0,0,0.008173828125000001,5.4928125,0)" xlink:href="#X"/><use transform="matrix(0.008173828125000001,0,0,0.008173828125000001,9.555205078125,0)" xlink:href="#ae"/><use transform="matrix(0.008173828125000001,0,0,0.008173828125000001,24.219052734375005,0)" xlink:href="#R"/><use transform="matrix(0.008173828125000001,0,0,0.008173828125000001,33.85599609375001,0)" xlink:href="#S"/><use transform="matrix(0.008173828125000001,0,0,0.008173828125000001,42.68373046875001,0)" xlink:href="#ap"/><use transform="matrix(0.008173828125000001,0,0,0.008173828125000001,48.013066406250005,0)" xlink:href="#ad"/><use transform="matrix(0.008173828125000001,0,0,0.008173828125000001,58.28756835937501,0)" xlink:href="#ae"/><use transform="matrix(0.008173828125000001,0,0,0.008173828125000001,72.95141601562501,0)" xlink:href="#ar"/></g><path fill="#333" d="M87 0l247-1490h270l211 940c16 74 39 220 54 339 57-123 125-267 165-339l519-940h271L1577 0h-187c75-441 134-849 220-1287C1371-790 1163-459 914 0H749C649-458 553-779 473-1282 408-826 339-440 268 0H87" id="ay"/><path fill="#333" d="M575 26C254 26 62-139 87-390h195c-13 168 129 246 305 246 202 0 370-106 400-265 38-202-254-238-427-293-212-68-349-179-316-387 40-252 276-421 566-421 289 0 487 168 458 396h-185c7-144-113-228-291-228-194 0-337 102-361 240-27 156 137 212 244 243l142 41c149 43 400 132 354 412-40 244-251 432-596 432" id="az"/><path fill="#333" d="M87 0l247-1490h510c346 0 473 206 430 472s-238 479-586 479H366L277 0H87zm307-706h312c241 0 351-138 379-311s-39-306-279-306H496" id="aA"/><g id="l"><use transform="matrix(0.008173828125000001,0,0,0.008173828125000001,0,0)" xlink:href="#at"/><use transform="matrix(0.008173828125000001,0,0,0.008173828125000001,10.822148437500001,0)" xlink:href="#aa"/><use transform="matrix(0.008173828125000001,0,0,0.008173828125000001,15.317753906250001,0)" xlink:href="#ay"/><use transform="matrix(0.008173828125000001,0,0,0.008173828125000001,30.439335937500005,0)" xlink:href="#au"/><use transform="matrix(0.008173828125000001,0,0,0.008173828125000001,40.50949218750001,0)" xlink:href="#az"/><use transform="matrix(0.008173828125000001,0,0,0.008173828125000001,51.23355468750001,0)" xlink:href="#at"/><use transform="matrix(0.008173828125000001,0,0,0.008173828125000001,60.63345703125002,0)" xlink:href="#ag"/><use transform="matrix(0.008173828125000001,0,0,0.008173828125000001,72.18307617187502,0)" xlink:href="#ay"/><use transform="matrix(0.008173828125000001,0,0,0.008173828125000001,87.30465820312502,0)" xlink:href="#aA"/></g><g id="m"><use transform="matrix(0.008173828125000001,0,0,0.008173828125000001,0,0)" xlink:href="#ah"/><use transform="matrix(0.008173828125000001,0,0,0.008173828125000001,12.219873046875001,0)" xlink:href="#T"/><use transform="matrix(0.008173828125000001,0,0,0.008173828125000001,22.265507812500008,0)" xlink:href="#U"/><use transform="matrix(0.008173828125000001,0,0,0.008173828125000001,32.17218750000001,0)" xlink:href="#V"/><use transform="matrix(0.008173828125000001,0,0,0.008173828125000001,38.482382812500006,0)" xlink:href="#S"/><use transform="matrix(0.008173828125000001,0,0,0.008173828125000001,47.310117187500005,0)" xlink:href="#R"/><use transform="matrix(0.008173828125000001,0,0,0.008173828125000001,56.94706054687501,0)" xlink:href="#S"/></g><g id="n"><use transform="matrix(0.008173828125000001,0,0,0.008173828125000001,0,0)" xlink:href="#W"/><use transform="matrix(0.008173828125000001,0,0,0.008173828125000001,9.571552734375,0)" xlink:href="#T"/><use transform="matrix(0.008173828125000001,0,0,0.008173828125000001,19.6171875,0)" xlink:href="#Y"/><use transform="matrix(0.008173828125000001,0,0,0.008173828125000001,29.875341796875,0)" xlink:href="#R"/></g><path fill="#333" d="M61 0l23-137 583-537c198-182 297-283 319-421 25-157-68-250-224-250-169 0-311 109-339 278H242c44-263 264-443 530-443 267 0 433 185 393 418-28 164-126 293-428 566L353-179l-2 12h686L1010 0H61" id="aB"/><g id="o"><use transform="matrix(0.008173828125000001,0,0,0.008173828125000001,0,0)" xlink:href="#af"/><use transform="matrix(0.008173828125000001,0,0,0.008173828125000001,10.405283203125002,0)" xlink:href="#ag"/><use transform="matrix(0.008173828125000001,0,0,0.008173828125000001,21.954902343750003,0)" xlink:href="#Q"/><use transform="matrix(0.008173828125000001,0,0,0.008173828125000001,32.7280078125,0)" xlink:href="#ah"/><use transform="matrix(0.008173828125000001,0,0,0.008173828125000001,44.947880859375005,0)" xlink:href="#ai"/><use transform="matrix(0.008173828125000001,0,0,0.008173828125000001,57.388447265625004,0)" xlink:href="#ag"/><use transform="matrix(0.008173828125000001,0,0,0.008173828125000001,68.93806640625,0)" xlink:href="#Q"/><use transform="matrix(0.008173828125000001,0,0,0.008173828125000001,79.711171875,0)" xlink:href="#aj"/><use transform="matrix(0.008173828125000001,0,0,0.008173828125000001,85.817021484375,0)" xlink:href="#aB"/><use transform="matrix(0.008173828125000001,0,0,0.008173828125000001,96.02613281250001,0)" xlink:href="#al"/><use transform="matrix(0.008173828125000001,0,0,0.008173828125000001,106.57854492187501,0)" xlink:href="#am"/></g><g id="p"><use transform="matrix(0.008173828125000001,0,0,0.008173828125000001,0,0)" xlink:href="#Y"/><use transform="matrix(0.008173828125000001,0,0,0.008173828125000001,10.258154296875,0)" xlink:href="#R"/><use transform="matrix(0.008173828125000001,0,0,0.008173828125000001,19.89509765625,0)" xlink:href="#ar"/><use transform="matrix(0.008173828125000001,0,0,0.008173828125000001,30.153251953125,0)" xlink:href="#ad"/><use transform="matrix(0.008173828125000001,0,0,0.008173828125000001,40.427753906250004,0)" xlink:href="#V"/><use transform="matrix(0.008173828125000001,0,0,0.008173828125000001,46.99951171875,0)" xlink:href="#ap"/><use transform="matrix(0.008173828125000001,0,0,0.008173828125000001,52.49232421875,0)" xlink:href="#ae"/><use transform="matrix(0.008173828125000001,0,0,0.008173828125000001,67.156171875,0)" xlink:href="#R"/><use transform="matrix(0.008173828125000001,0,0,0.008173828125000001,76.793115234375,0)" xlink:href="#ac"/><use transform="matrix(0.008173828125000001,0,0,0.008173828125000001,86.69162109375,0)" xlink:href="#ap"/></g><g id="q"><use transform="matrix(0.008173828125000001,0,0,0.008173828125000001,0,0)" xlink:href="#Y"/><use transform="matrix(0.008173828125000001,0,0,0.008173828125000001,10.258154296875,0)" xlink:href="#R"/><use transform="matrix(0.008173828125000001,0,0,0.008173828125000001,19.89509765625,0)" xlink:href="#S"/><use transform="matrix(0.008173828125000001,0,0,0.008173828125000001,28.72283203125,0)" xlink:href="#W"/><use transform="matrix(0.008173828125000001,0,0,0.008173828125000001,38.294384765625,0)" xlink:href="#V"/><use transform="matrix(0.008173828125000001,0,0,0.008173828125000001,44.86614257812499,0)" xlink:href="#X"/><use transform="matrix(0.008173828125000001,0,0,0.008173828125000001,48.92853515624999,0)" xlink:href="#ar"/><use transform="matrix(0.008173828125000001,0,0,0.008173828125000001,59.18668945312499,0)" xlink:href="#ap"/><use transform="matrix(0.008173828125000001,0,0,0.008173828125000001,64.679501953125,0)" xlink:href="#X"/><use transform="matrix(0.008173828125000001,0,0,0.008173828125000001,68.74189453125,0)" xlink:href="#T"/><use transform="matrix(0.008173828125000001,0,0,0.008173828125000001,78.787529296875,0)" xlink:href="#ac"/></g><g id="r"><use transform="matrix(0.008173828125000001,0,0,0.008173828125000001,0,0)" xlink:href="#Z"/><use transform="matrix(0.008173828125000001,0,0,0.008173828125000001,12.448740234375002,0)" xlink:href="#S"/><use transform="matrix(0.008173828125000001,0,0,0.008173828125000001,21.276474609375,0)" xlink:href="#R"/><use transform="matrix(0.008173828125000001,0,0,0.008173828125000001,30.913417968750004,0)" xlink:href="#V"/><use transform="matrix(0.008173828125000001,0,0,0.008173828125000001,37.22361328125,0)" xlink:href="#S"/></g><g id="s"><use transform="matrix(0.008173828125000001,0,0,0.008173828125000001,0,0)" xlink:href="#R"/><use transform="matrix(0.008173828125000001,0,0,0.008173828125000001,9.636943359375001,0)" xlink:href="#ae"/><use transform="matrix(0.008173828125000001,0,0,0.008173828125000001,24.300791015625002,0)" xlink:href="#ad"/><use transform="matrix(0.008173828125000001,0,0,0.008173828125000001,34.575292968750006,0)" xlink:href="#X"/><use transform="matrix(0.008173828125000001,0,0,0.008173828125000001,38.637685546875005,0)" xlink:href="#ao"/></g><path fill="#333" d="M317 0L163-1118h191c34 329 72 559 91 925 130-352 253-602 392-925h192c32 328 66 558 83 922 132-350 256-600 396-922h191L1175 0H996c-36-314-76-577-98-915C766-585 635-312 496 0H317" id="aC"/><g id="t"><use transform="matrix(0.008173828125000001,0,0,0.008173828125000001,0,0)" xlink:href="#ar"/><use transform="matrix(0.008173828125000001,0,0,0.008173828125000001,10.258154296875,0)" xlink:href="#ad"/><use transform="matrix(0.008173828125000001,0,0,0.008173828125000001,20.532656250000002,0)" xlink:href="#S"/><use transform="matrix(0.008173828125000001,0,0,0.008173828125000001,29.360390625,0)" xlink:href="#S"/><use transform="matrix(0.008173828125000001,0,0,0.008173828125000001,38.188125,0)" xlink:href="#aC"/><use transform="matrix(0.008173828125000001,0,0,0.008173828125000001,51.585029296875,0)" xlink:href="#T"/><use transform="matrix(0.008173828125000001,0,0,0.008173828125000001,61.6306640625,0)" xlink:href="#V"/><use transform="matrix(0.008173828125000001,0,0,0.008173828125000001,67.66294921874999,0)" xlink:href="#Y"/></g><g id="u"><use transform="matrix(0.008173828125000001,0,0,0.008173828125000001,0,0)" xlink:href="#V"/><use transform="matrix(0.008173828125000001,0,0,0.008173828125000001,6.03228515625,0)" xlink:href="#T"/><use transform="matrix(0.008173828125000001,0,0,0.008173828125000001,16.077919921875,0)" xlink:href="#ao"/><use transform="matrix(0.008173828125000001,0,0,0.008173828125000001,20.132138671875,0)" xlink:href="#R"/></g><path fill="#333" d="M-23 359l182-567h206L115 359H-23" id="aD"/><g id="v"><use transform="matrix(0.008173828125000001,0,0,0.008173828125000001,0,0)" xlink:href="#au"/><use transform="matrix(0.008173828125000001,0,0,0.008173828125000001,10.070156250000002,0)" xlink:href="#ax"/><use transform="matrix(0.008173828125000001,0,0,0.008173828125000001,22.682373046875004,0)" xlink:href="#Z"/><use transform="matrix(0.008173828125000001,0,0,0.008173828125000001,35.13111328125001,0)" xlink:href="#ay"/><use transform="matrix(0.008173828125000001,0,0,0.008173828125000001,50.25269531250001,0)" xlink:href="#aj"/><use transform="matrix(0.008173828125000001,0,0,0.008173828125000001,56.35854492187501,0)" xlink:href="#S"/><use transform="matrix(0.008173828125000001,0,0,0.008173828125000001,65.18627929687501,0)" xlink:href="#ap"/><use transform="matrix(0.008173828125000001,0,0,0.008173828125000001,70.67909179687501,0)" xlink:href="#U"/><use transform="matrix(0.008173828125000001,0,0,0.008173828125000001,80.58577148437502,0)" xlink:href="#Y"/><use transform="matrix(0.008173828125000001,0,0,0.008173828125000001,90.84392578125002,0)" xlink:href="#R"/><use transform="matrix(0.008173828125000001,0,0,0.008173828125000001,100.48086914062502,0)" xlink:href="#ac"/><use transform="matrix(0.008173828125000001,0,0,0.008173828125000001,110.37937500000002,0)" xlink:href="#ap"/><use transform="matrix(0.008173828125000001,0,0,0.008173828125000001,115.87218750000002,0)" xlink:href="#aD"/></g><g id="w"><use transform="matrix(0.008173828125000001,0,0,0.008173828125000001,0,0)" xlink:href="#ar"/><use transform="matrix(0.008173828125000001,0,0,0.008173828125000001,10.258154296875,0)" xlink:href="#V"/><use transform="matrix(0.008173828125000001,0,0,0.008173828125000001,16.290439453125,0)" xlink:href="#T"/><use transform="matrix(0.008173828125000001,0,0,0.008173828125000001,26.33607421875,0)" xlink:href="#an"/><use transform="matrix(0.008173828125000001,0,0,0.008173828125000001,32.09044921875,0)" xlink:href="#R"/><use transform="matrix(0.008173828125000001,0,0,0.008173828125000001,41.727392578125006,0)" xlink:href="#S"/><use transform="matrix(0.008173828125000001,0,0,0.008173828125000001,50.555126953125004,0)" xlink:href="#S"/><use transform="matrix(0.008173828125000001,0,0,0.008173828125000001,59.382861328125,0)" xlink:href="#T"/><use transform="matrix(0.008173828125000001,0,0,0.008173828125000001,69.42849609375,0)" xlink:href="#V"/><use transform="matrix(0.008173828125000001,0,0,0.008173828125000001,74.69244140625,0)" xlink:href="#aD"/></g><g id="x"><use transform="matrix(0.008173828125000001,0,0,0.008173828125000001,0,0)" xlink:href="#ad"/><use transform="matrix(0.008173828125000001,0,0,0.008173828125000001,10.274501953125002,0)" xlink:href="#Y"/><use transform="matrix(0.008173828125000001,0,0,0.008173828125000001,20.532656250000002,0)" xlink:href="#ae"/><use transform="matrix(0.008173828125000001,0,0,0.008173828125000001,35.19650390625,0)" xlink:href="#X"/><use transform="matrix(0.008173828125000001,0,0,0.008173828125000001,39.258896484375,0)" xlink:href="#ac"/><use transform="matrix(0.008173828125000001,0,0,0.008173828125000001,49.15740234375,0)" xlink:href="#am"/></g><path fill="#333" d="M841 0l-27 166h-934L-93 0h934" id="aE"/><path fill="#333" d="M456 442C197 442 73 327 25 209l155-84c33 60 86 160 280 160 184 0 332-89 363-272l37-218-16 4C793-134 707-18 498-18 260-18 96-170 96-443c0-341 216-689 568-689 222 0 274 139 301 198l21-5 30-179h175L999 35c-48 288-275 407-543 407zm75-620c274 0 401-267 401-512 0-170-80-281-247-281-260 0-408 269-408 518 0 167 83 275 254 275" id="aF"/><g id="y"><use transform="matrix(0.008173828125000001,0,0,0.008173828125000001,0,0)" xlink:href="#ar"/><use transform="matrix(0.008173828125000001,0,0,0.008173828125000001,10.258154296875,0)" xlink:href="#V"/><use transform="matrix(0.008173828125000001,0,0,0.008173828125000001,16.290439453125,0)" xlink:href="#T"/><use transform="matrix(0.008173828125000001,0,0,0.008173828125000001,26.33607421875,0)" xlink:href="#an"/><use transform="matrix(0.008173828125000001,0,0,0.008173828125000001,32.58087890625,0)" xlink:href="#X"/><use transform="matrix(0.008173828125000001,0,0,0.008173828125000001,36.643271484375,0)" xlink:href="#ao"/><use transform="matrix(0.008173828125000001,0,0,0.008173828125000001,40.697490234374996,0)" xlink:href="#R"/><use transform="matrix(0.008173828125000001,0,0,0.008173828125000001,50.33443359375,0)" xlink:href="#aE"/><use transform="matrix(0.008173828125000001,0,0,0.008173828125000001,58.532783203125,0)" xlink:href="#X"/><use transform="matrix(0.008173828125000001,0,0,0.008173828125000001,62.59517578125,0)" xlink:href="#ae"/><use transform="matrix(0.008173828125000001,0,0,0.008173828125000001,77.2590234375,0)" xlink:href="#ad"/><use transform="matrix(0.008173828125000001,0,0,0.008173828125000001,87.533525390625,0)" xlink:href="#aF"/><use transform="matrix(0.008173828125000001,0,0,0.008173828125000001,97.799853515625,0)" xlink:href="#R"/></g><g id="z"><use transform="matrix(0.008173828125000001,0,0,0.008173828125000001,0,0)" xlink:href="#ag"/><use transform="matrix(0.008173828125000001,0,0,0.008173828125000001,11.549619140625001,0)" xlink:href="#aF"/><use transform="matrix(0.008173828125000001,0,0,0.008173828125000001,21.815947265625002,0)" xlink:href="#R"/><use transform="matrix(0.008173828125000001,0,0,0.008173828125000001,31.452890625000002,0)" xlink:href="#ac"/><use transform="matrix(0.008173828125000001,0,0,0.008173828125000001,41.351396484375,0)" xlink:href="#ap"/><use transform="matrix(0.008173828125000001,0,0,0.008173828125000001,46.680732421875,0)" xlink:href="#S"/></g><path fill="#333" d="M65 0l247-1490h180L349-625h22l559-493h223L606-638 1003 0H772L449-523 313-412 245 0H65" id="aG"/><g id="A"><use transform="matrix(0.008173828125000001,0,0,0.008173828125000001,0,0)" xlink:href="#X"/><use transform="matrix(0.008173828125000001,0,0,0.008173828125000001,4.062392578125,0)" xlink:href="#S"/><use transform="matrix(0.008173828125000001,0,0,0.008173828125000001,12.890126953125002,0)" xlink:href="#aE"/><use transform="matrix(0.008173828125000001,0,0,0.008173828125000001,20.524482421875003,0)" xlink:href="#aC"/><use transform="matrix(0.008173828125000001,0,0,0.008173828125000001,33.92138671875001,0)" xlink:href="#T"/><use transform="matrix(0.008173828125000001,0,0,0.008173828125000001,43.96702148437501,0)" xlink:href="#V"/><use transform="matrix(0.008173828125000001,0,0,0.008173828125000001,50.538779296875006,0)" xlink:href="#aG"/><use transform="matrix(0.008173828125000001,0,0,0.008173828125000001,59.734335937500006,0)" xlink:href="#X"/><use transform="matrix(0.008173828125000001,0,0,0.008173828125000001,63.796728515625006,0)" xlink:href="#ac"/><use transform="matrix(0.008173828125000001,0,0,0.008173828125000001,73.69523437500001,0)" xlink:href="#aF"/></g><path fill="#333" d="M87 0l247-1490h522c311 0 433 182 398 403-29 183-158 272-300 309v10c139 9 280 144 242 380C1160-164 988 0 639 0H87zm218-167h345c236 0 346-113 367-247 23-147-78-262-262-262H390zm111-669h323c157 0 307-105 334-265 21-124-42-222-237-222H497" id="aH"/><path fill="#333" d="M699 20c-338 0-560-226-560-600 0-472 307-930 791-930 337 0 558 226 558 599 0 474-306 931-789 931zm7-176c374 0 598-379 598-750 0-280-157-428-381-428-373 0-600 379-600 749 0 280 158 429 383 429" id="aI"/><path fill="#333" d="M87 0l247-1490h190L304-167h690L967 0H87" id="aJ"/><g id="B"><use transform="matrix(0.008173828125000001,0,0,0.008173828125000001,0,0)" xlink:href="#aH"/><use transform="matrix(0.008173828125000001,0,0,0.008173828125000001,10.952929687500001,0)" xlink:href="#aI"/><use transform="matrix(0.008173828125000001,0,0,0.008173828125000001,23.75314453125,0)" xlink:href="#aI"/><use transform="matrix(0.008173828125000001,0,0,0.008173828125000001,36.553359375,0)" xlink:href="#aJ"/><use transform="matrix(0.008173828125000001,0,0,0.008173828125000001,46.01865234375,0)" xlink:href="#au"/><use transform="matrix(0.008173828125000001,0,0,0.008173828125000001,56.08880859375,0)" xlink:href="#ag"/><use transform="matrix(0.008173828125000001,0,0,0.008173828125000001,67.638427734375,0)" xlink:href="#ax"/></g><g id="C"><use transform="matrix(0.008173828125000001,0,0,0.008173828125000001,0,0)" xlink:href="#S"/><use transform="matrix(0.008173828125000001,0,0,0.008173828125000001,8.827734375,0)" xlink:href="#aq"/><use transform="matrix(0.008173828125000001,0,0,0.008173828125000001,18.235810546875,0)" xlink:href="#S"/><use transform="matrix(0.008173828125000001,0,0,0.008173828125000001,27.063544921875,0)" xlink:href="#ap"/><use transform="matrix(0.008173828125000001,0,0,0.008173828125000001,32.392880859375,0)" xlink:href="#R"/><use transform="matrix(0.008173828125000001,0,0,0.008173828125000001,42.02982421875,0)" xlink:href="#ae"/><use transform="matrix(0.008173828125000001,0,0,0.008173828125000001,56.69367187500001,0)" xlink:href="#aE"/><use transform="matrix(0.008173828125000001,0,0,0.008173828125000001,64.89202148437501,0)" xlink:href="#ar"/><use transform="matrix(0.008173828125000001,0,0,0.008173828125000001,75.15017578125001,0)" xlink:href="#V"/><use transform="matrix(0.008173828125000001,0,0,0.008173828125000001,81.18246093750001,0)" xlink:href="#T"/><use transform="matrix(0.008173828125000001,0,0,0.008173828125000001,91.228095703125,0)" xlink:href="#ae"/><use transform="matrix(0.008173828125000001,0,0,0.008173828125000001,105.891943359375,0)" xlink:href="#ar"/><use transform="matrix(0.008173828125000001,0,0,0.008173828125000001,116.15009765625001,0)" xlink:href="#ap"/></g><g id="D"><use transform="matrix(0.008173828125000001,0,0,0.008173828125000001,0,0)" xlink:href="#ae"/><use transform="matrix(0.008173828125000001,0,0,0.008173828125000001,14.663847656250002,0)" xlink:href="#T"/><use transform="matrix(0.008173828125000001,0,0,0.008173828125000001,24.709482421875002,0)" xlink:href="#Y"/><use transform="matrix(0.008173828125000001,0,0,0.008173828125000001,34.96763671875001,0)" xlink:href="#R"/><use transform="matrix(0.008173828125000001,0,0,0.008173828125000001,44.604580078125004,0)" xlink:href="#ao"/></g><g id="E"><use transform="matrix(0.008173828125000001,0,0,0.008173828125000001,0,0)" xlink:href="#ao"/><use transform="matrix(0.008173828125000001,0,0,0.008173828125000001,4.05421875,0)" xlink:href="#ad"/><use transform="matrix(0.008173828125000001,0,0,0.008173828125000001,14.328720703125002,0)" xlink:href="#ac"/><use transform="matrix(0.008173828125000001,0,0,0.008173828125000001,24.227226562500004,0)" xlink:href="#aF"/><use transform="matrix(0.008173828125000001,0,0,0.008173828125000001,34.49355468750001,0)" xlink:href="#U"/><use transform="matrix(0.008173828125000001,0,0,0.008173828125000001,44.40023437500001,0)" xlink:href="#ad"/><use transform="matrix(0.008173828125000001,0,0,0.008173828125000001,54.674736328125014,0)" xlink:href="#aF"/><use transform="matrix(0.008173828125000001,0,0,0.008173828125000001,64.94106445312502,0)" xlink:href="#R"/></g><g id="F"><use transform="matrix(0.008173828125000001,0,0,0.008173828125000001,0,0)" xlink:href="#au"/><use transform="matrix(0.008173828125000001,0,0,0.008173828125000001,10.070156250000002,0)" xlink:href="#ax"/><use transform="matrix(0.008173828125000001,0,0,0.008173828125000001,22.682373046875004,0)" xlink:href="#Z"/><use transform="matrix(0.008173828125000001,0,0,0.008173828125000001,35.13111328125001,0)" xlink:href="#ay"/><use transform="matrix(0.008173828125000001,0,0,0.008173828125000001,50.25269531250001,0)" xlink:href="#aj"/><use transform="matrix(0.008173828125000001,0,0,0.008173828125000001,56.17054687500001,0)" xlink:href="#R"/><use transform="matrix(0.008173828125000001,0,0,0.008173828125000001,65.80749023437501,0)" xlink:href="#S"/><use transform="matrix(0.008173828125000001,0,0,0.008173828125000001,74.63522460937502,0)" xlink:href="#aD"/></g><g id="G"><use transform="matrix(0.008173828125000001,0,0,0.008173828125000001,0,0)" xlink:href="#R"/><use transform="matrix(0.008173828125000001,0,0,0.008173828125000001,9.636943359375001,0)" xlink:href="#ac"/><use transform="matrix(0.008173828125000001,0,0,0.008173828125000001,19.535449218750003,0)" xlink:href="#am"/></g><path fill="#333" d="M389 0L147-1118h188c55 314 135 617 168 951 141-329 323-637 482-951h205L578 0H389" id="aK"/><g id="H"><use transform="matrix(0.008173828125000001,0,0,0.008173828125000001,0,0)" xlink:href="#V"/><use transform="matrix(0.008173828125000001,0,0,0.008173828125000001,6.03228515625,0)" xlink:href="#R"/><use transform="matrix(0.008173828125000001,0,0,0.008173828125000001,15.669228515625,0)" xlink:href="#ap"/><use transform="matrix(0.008173828125000001,0,0,0.008173828125000001,21.162041015625,0)" xlink:href="#V"/><use transform="matrix(0.008173828125000001,0,0,0.008173828125000001,27.733798828125,0)" xlink:href="#X"/><use transform="matrix(0.008173828125000001,0,0,0.008173828125000001,31.79619140625,0)" xlink:href="#R"/><use transform="matrix(0.008173828125000001,0,0,0.008173828125000001,41.106181640625,0)" xlink:href="#aK"/><use transform="matrix(0.008173828125000001,0,0,0.008173828125000001,50.1873046875,0)" xlink:href="#ad"/><use transform="matrix(0.008173828125000001,0,0,0.008173828125000001,60.46180664062501,0)" xlink:href="#ao"/><use transform="matrix(0.008173828125000001,0,0,0.008173828125000001,64.516025390625,0)" xlink:href="#aE"/><use transform="matrix(0.008173828125000001,0,0,0.008173828125000001,72.714375,0)" xlink:href="#aG"/></g><path fill="#333" d="M628 22C291 22 81-210 81-554c0-346 210-578 547-578 265 0 455 142 497 372l-279 52c-25-116-99-188-215-188-160 0-244 139-244 341 0 200 84 341 244 341 116 0 193-74 217-195l279 51C1085-123 896 22 628 22" id="aL"/><path fill="#333" d="M628 22C291 22 81-210 81-554c0-346 210-578 547-578 336 0 547 232 547 578 0 344-211 576-547 576zm0-236c160 0 242-146 242-341 0-197-82-341-242-341S387-753 387-555c0 195 81 341 241 341" id="aM"/><path fill="#333" d="M513 14c-232 0-385-159-385-421v-711h300v659c0 139 76 222 202 222 127 0 217-86 217-234v-647h301V0H864l-4-232C797-74 683 14 513 14" id="aN"/><path fill="#333" d="M128 0v-1118h290v195h12c54-169 184-238 367-200v268c-27-8-86-15-130-15-138 0-239 95-239 234V0H128" id="aO"/><path fill="#333" d="M572 22C302 22 117-98 78-306l279-48c29 105 101 156 224 156 114 0 185-48 185-115 0-118-228-130-337-155-215-49-322-150-322-317 0-215 187-347 470-347 265 0 424 116 466 298l-266 47c-24-76-87-130-196-130-98 0-174 46-174 113 0 56 38 95 144 117l201 40c216 44 320 143 320 302 0 220-207 367-500 367" id="aP"/><path fill="#333" d="M633 22C291 22 81-200 81-553c0-345 210-579 537-579 292 0 525 185 525 567v84H378c7 183 109 277 260 277 105 0 184-46 216-132l272 51C1071-99 893 22 633 22zM380-669h474c-15-146-94-237-233-237-143 0-229 99-241 237" id="aQ"/><path fill="#333" d="M975 0v231H0V0h975" id="aR"/><path fill="#333" d="M683-1118v229H474v562c0 71 29 104 102 104 23 0 73-7 95-13l43 225C647 9 580 16 520 16 296 16 174-96 174-301v-588H20v-229h154v-266h300v266h209" id="aS"/><path fill="#333" d="M440 22C227 22 68-92 68-313c0-250 202-322 422-343 195-21 271-24 271-105 0-95-63-149-175-149-116 0-187 57-211 129l-275-46c57-194 237-305 487-305 240 0 474 108 474 379V0H777v-155h-10C713-51 605 22 440 22zm85-211c140 0 238-93 238-211v-121c-37 26-156 42-222 51-111 16-185 59-185 149 0 87 70 132 169 132" id="aT"/><path fill="#333" d="M625 442c-280 0-454-114-503-274l258-72c28 63 97 128 243 128 153 0 246-69 246-216v-206h-23C805-108 717-16 536-16 284-16 81-191 81-561c0-378 208-571 456-571 188 0 280 113 321 202h13v-188h295V-9c0 303-226 451-541 451zm5-686c153 0 240-119 240-319 0-198-86-329-240-329-158 0-241 137-241 329 0 195 85 319 241 319" id="aU"/><path fill="#333" d="M428-647V0H128v-1490h294v586c65-146 175-228 341-228 232 0 385 159 385 421V0H847v-659c0-139-76-222-202-222-128 0-217 86-217 234" id="aV"/><g id="I"><use transform="matrix(0.008680555555555556,0,0,0.008680555555555556,0,0)" xlink:href="#aL"/><use transform="matrix(0.008680555555555556,0,0,0.008680555555555556,10.460069444444445,0)" xlink:href="#aM"/><use transform="matrix(0.008680555555555556,0,0,0.008680555555555556,21.36284722222222,0)" xlink:href="#aN"/><use transform="matrix(0.008680555555555556,0,0,0.008680555555555556,32.43055555555556,0)" xlink:href="#aO"/><use transform="matrix(0.008680555555555556,0,0,0.008680555555555556,39.67013888888889,0)" xlink:href="#aP"/><use transform="matrix(0.008680555555555556,0,0,0.008680555555555556,49.626736111111114,0)" xlink:href="#aQ"/><use transform="matrix(0.008680555555555556,0,0,0.008680555555555556,60.21701388888889,0)" xlink:href="#aP"/><use transform="matrix(0.008680555555555556,0,0,0.008680555555555556,70.17361111111111,0)" xlink:href="#aR"/><use transform="matrix(0.008680555555555556,0,0,0.008680555555555556,78.63715277777779,0)" xlink:href="#aS"/><use transform="matrix(0.008680555555555556,0,0,0.008680555555555556,85.23437500000001,0)" xlink:href="#aT"/><use transform="matrix(0.008680555555555556,0,0,0.008680555555555556,95.55555555555557,0)" xlink:href="#aN"/><use transform="matrix(0.008680555555555556,0,0,0.008680555555555556,106.6232638888889,0)" xlink:href="#aU"/><use transform="matrix(0.008680555555555556,0,0,0.008680555555555556,117.85590277777779,0)" xlink:href="#aV"/><use transform="matrix(0.008680555555555556,0,0,0.008680555555555556,128.92361111111111,0)" xlink:href="#aS"/></g><g id="J"><use transform="matrix(0.008680555555555556,0,0,0.008680555555555556,0,0)" xlink:href="#aS"/><use transform="matrix(0.008680555555555556,0,0,0.008680555555555556,6.336805555555556,0)" xlink:href="#aQ"/><use transform="matrix(0.008680555555555556,0,0,0.008680555555555556,17.100694444444446,0)" xlink:href="#aT"/><use transform="matrix(0.008680555555555556,0,0,0.008680555555555556,27.421875,0)" xlink:href="#aL"/><use transform="matrix(0.008680555555555556,0,0,0.008680555555555556,37.88194444444444,0)" xlink:href="#aV"/><use transform="matrix(0.008680555555555556,0,0,0.008680555555555556,48.94965277777778,0)" xlink:href="#aQ"/><use transform="matrix(0.008680555555555556,0,0,0.008680555555555556,59.53993055555556,0)" xlink:href="#aO"/></g><path fill="#333" d="M128 0v-1490h300v802h17l366-430h347L740-633 1179 0H826L514-456l-86 97V0H128" id="aW"/><path fill="#333" d="M428-647V0H128v-1118h283l4 231c63-156 176-245 348-245 232 0 384 159 384 421V0H847v-659c0-139-76-222-202-222-128 0-217 86-217 234" id="aX"/><g id="K"><use transform="matrix(0.008680555555555556,0,0,0.008680555555555556,0,0)" xlink:href="#aL"/><use transform="matrix(0.008680555555555556,0,0,0.008680555555555556,10.460069444444445,0)" xlink:href="#aM"/><use transform="matrix(0.008680555555555556,0,0,0.008680555555555556,21.36284722222222,0)" xlink:href="#aN"/><use transform="matrix(0.008680555555555556,0,0,0.008680555555555556,32.43055555555556,0)" xlink:href="#aO"/><use transform="matrix(0.008680555555555556,0,0,0.008680555555555556,39.67013888888889,0)" xlink:href="#aP"/><use transform="matrix(0.008680555555555556,0,0,0.008680555555555556,49.626736111111114,0)" xlink:href="#aQ"/><use transform="matrix(0.008680555555555556,0,0,0.008680555555555556,60.21701388888889,0)" xlink:href="#aP"/><use transform="matrix(0.008680555555555556,0,0,0.008680555555555556,70.17361111111111,0)" xlink:href="#aR"/><use transform="matrix(0.008680555555555556,0,0,0.008680555555555556,78.63715277777779,0)" xlink:href="#aS"/><use transform="matrix(0.008680555555555556,0,0,0.008680555555555556,85.23437500000001,0)" xlink:href="#aT"/><use transform="matrix(0.008680555555555556,0,0,0.008680555555555556,95.55555555555557,0)" xlink:href="#aW"/><use transform="matrix(0.008680555555555556,0,0,0.008680555555555556,105.46875000000001,0)" xlink:href="#aQ"/><use transform="matrix(0.008680555555555556,0,0,0.008680555555555556,116.0590277777778,0)" xlink:href="#aX"/></g><path fill="#333" d="M537 19C279 19 81-185 81-557c0-382 206-575 454-575 190 0 278 113 318 202h10v-560h300V0H868v-179h-15C812-89 719 19 537 19zm92-241c153 0 240-134 240-336 0-203-86-334-240-334-158 0-240 138-240 334 0 197 84 336 240 336" id="aY"/><g id="L"><use transform="matrix(0.008680555555555556,0,0,0.008680555555555556,0,0)" xlink:href="#aP"/><use transform="matrix(0.008680555555555556,0,0,0.008680555555555556,9.956597222222223,0)" xlink:href="#aS"/><use transform="matrix(0.008680555555555556,0,0,0.008680555555555556,16.46701388888889,0)" xlink:href="#aN"/><use transform="matrix(0.008680555555555556,0,0,0.008680555555555556,27.534722222222218,0)" xlink:href="#aY"/><use transform="matrix(0.008680555555555556,0,0,0.008680555555555556,38.74131944444444,0)" xlink:href="#aQ"/><use transform="matrix(0.008680555555555556,0,0,0.008680555555555556,49.33159722222222,0)" xlink:href="#aX"/><use transform="matrix(0.008680555555555556,0,0,0.008680555555555556,60.39930555555556,0)" xlink:href="#aS"/><use transform="matrix(0.008680555555555556,0,0,0.008680555555555556,66.77951388888889,0)" xlink:href="#aP"/></g><g id="M"><use transform="matrix(0.008680555555555556,0,0,0.008680555555555556,0,0)" xlink:href="#aT"/><use transform="matrix(0.008680555555555556,0,0,0.008680555555555556,10.321180555555555,0)" xlink:href="#aU"/><use transform="matrix(0.008680555555555556,0,0,0.008680555555555556,21.553819444444443,0)" xlink:href="#aQ"/><use transform="matrix(0.008680555555555556,0,0,0.008680555555555556,32.14409722222222,0)" xlink:href="#aX"/><use transform="matrix(0.008680555555555556,0,0,0.008680555555555556,43.21180555555556,0)" xlink:href="#aS"/><use transform="matrix(0.008680555555555556,0,0,0.008680555555555556,49.592013888888886,0)" xlink:href="#aP"/></g><path fill="#333" d="M128 0v-1118h300V0H128zm150-1264c-91 0-165-68-165-154 0-85 74-154 165-154 90 0 165 69 165 154 0 86-75 154-165 154" id="aZ"/><g id="N"><use transform="matrix(0.008680555555555556,0,0,0.008680555555555556,0,0)" xlink:href="#aT"/><use transform="matrix(0.008680555555555556,0,0,0.008680555555555556,10.321180555555555,0)" xlink:href="#aP"/><use transform="matrix(0.008680555555555556,0,0,0.008680555555555556,20.27777777777778,0)" xlink:href="#aP"/><use transform="matrix(0.008680555555555556,0,0,0.008680555555555556,30.234375,0)" xlink:href="#aM"/><use transform="matrix(0.008680555555555556,0,0,0.008680555555555556,41.13715277777778,0)" xlink:href="#aL"/><use transform="matrix(0.008680555555555556,0,0,0.008680555555555556,51.59722222222222,0)" xlink:href="#aZ"/><use transform="matrix(0.008680555555555556,0,0,0.008680555555555556,56.41493055555556,0)" xlink:href="#aT"/><use transform="matrix(0.008680555555555556,0,0,0.008680555555555556,66.73611111111111,0)" xlink:href="#aS"/><use transform="matrix(0.008680555555555556,0,0,0.008680555555555556,73.07291666666667,0)" xlink:href="#aQ"/><use transform="matrix(0.008680555555555556,0,0,0.008680555555555556,83.66319444444446,0)" xlink:href="#aY"/><use transform="matrix(0.008680555555555556,0,0,0.008680555555555556,95.19097222222224,0)" xlink:href="#aR"/><use transform="matrix(0.008680555555555556,0,0,0.008680555555555556,103.65451388888891,0)" xlink:href="#aL"/><use transform="matrix(0.008680555555555556,0,0,0.008680555555555556,114.11458333333336,0)" xlink:href="#aM"/><use transform="matrix(0.008680555555555556,0,0,0.008680555555555556,125.01736111111114,0)" xlink:href="#aN"/><use transform="matrix(0.008680555555555556,0,0,0.008680555555555556,136.08506944444449,0)" xlink:href="#aO"/><use transform="matrix(0.008680555555555556,0,0,0.008680555555555556,143.32465277777783,0)" xlink:href="#aP"/><use transform="matrix(0.008680555555555556,0,0,0.008680555555555556,153.28125000000006,0)" xlink:href="#aQ"/></g><path fill="#333" d="M128 0v-1118h278l12 217c60-163 185-234 319-234 143 0 236 81 288 251 63-172 205-251 359-251 205 0 357 138 357 381V0h-301v-697c0-126-76-187-177-187-114 0-184 79-184 196V0H789v-705c0-109-72-179-174-179-106 0-187 74-187 208V0H128" id="ba"/><path fill="#333" d="M754 19C571 19 479-89 437-179h-14V0H128v-1490h300v560h9c41-89 129-202 319-202 248 0 453 193 453 575 0 372-197 576-455 576zm-92-241c156 0 240-139 240-336 0-196-83-334-240-334-154 0-241 131-241 334 0 202 88 336 241 336" id="bb"/><path fill="#333" d="M120 396l69-226c123 42 245 23 254-107l8-60L31-1118h319c87 288 199 559 259 872 72-308 185-583 277-872h315L726 132c-68 181-186 294-410 294-79 0-153-13-196-30" id="bc"/><g id="O"><use transform="matrix(0.008680555555555556,0,0,0.008680555555555556,0,0)" xlink:href="#aL"/><use transform="matrix(0.008680555555555556,0,0,0.008680555555555556,10.460069444444445,0)" xlink:href="#aM"/><use transform="matrix(0.008680555555555556,0,0,0.008680555555555556,21.36284722222222,0)" xlink:href="#aX"/><use transform="matrix(0.008680555555555556,0,0,0.008680555555555556,32.43055555555556,0)" xlink:href="#aP"/><use transform="matrix(0.008680555555555556,0,0,0.008680555555555556,42.38715277777778,0)" xlink:href="#aN"/><use transform="matrix(0.008680555555555556,0,0,0.008680555555555556,53.454861111111114,0)" xlink:href="#ba"/><use transform="matrix(0.008680555555555556,0,0,0.008680555555555556,69.67881944444446,0)" xlink:href="#aQ"/><use transform="matrix(0.008680555555555556,0,0,0.008680555555555556,80.26909722222223,0)" xlink:href="#aY"/><use transform="matrix(0.008680555555555556,0,0,0.008680555555555556,91.79687500000001,0)" xlink:href="#aR"/><use transform="matrix(0.008680555555555556,0,0,0.008680555555555556,100.85937500000001,0)" xlink:href="#bb"/><use transform="matrix(0.008680555555555556,0,0,0.008680555555555556,111.74479166666669,0)" xlink:href="#bc"/></g><g id="P"><use transform="matrix(0.008680555555555556,0,0,0.008680555555555556,0,0)" xlink:href="#aO"/><use transform="matrix(0.008680555555555556,0,0,0.008680555555555556,6.805555555555556,0)" xlink:href="#aQ"/><use transform="matrix(0.008680555555555556,0,0,0.008680555555555556,17.395833333333336,0)" xlink:href="#aP"/><use transform="matrix(0.008680555555555556,0,0,0.008680555555555556,27.352430555555557,0)" xlink:href="#aM"/><use transform="matrix(0.008680555555555556,0,0,0.008680555555555556,38.255208333333336,0)" xlink:href="#aN"/><use transform="matrix(0.008680555555555556,0,0,0.008680555555555556,49.32291666666667,0)" xlink:href="#aO"/><use transform="matrix(0.008680555555555556,0,0,0.008680555555555556,56.12847222222222,0)" xlink:href="#aL"/><use transform="matrix(0.008680555555555556,0,0,0.008680555555555556,66.58854166666667,0)" xlink:href="#aQ"/><use transform="matrix(0.008680555555555556,0,0,0.008680555555555556,77.17881944444446,0)" xlink:href="#aP"/></g></defs></g></svg>